#!OML:ASF H:\Terrain\Patient Classification 1\Walking\steve\steve.ASF
:FULLY-SPECIFIED
:DEGREES
79
root 7.50572 15.4519 -24.8507 4.08627 2.43492 -1.5658
lowerback 4.63406 0.696572 3.5421
upperback -1.90509 1.27234 2.55995
thorax -4.55719 0.567349 0.555426
lowerneck -11.432 -1.18309 -4.13236
upperneck 10.7826 -1.30259 3.10579
head 5.16448 -0.594481 1.54139
rclavicle 2.80783e-015 1.27222e-014
rhumerus -70.7464 -38.4914 -33.8038
rradius 13.8635
rwrist 45.6921
rhand -15.554 -32.5611
rfingers 7.12502
rthumb 10.6304 -62.2722
lclavicle 2.80783e-015 1.27222e-014
lhumerus -24.6459 -9.79134 91.3786
lradius 54.9125
lwrist 27.9885
lhand -29.4838 -17.2583
lfingers 7.12502
lthumb -2.81893 12.7029
rfemur -33.271 4.28137 26.6114
rtibia 39.6799
rfoot -10.2715 5.65889
rtoes 7.9539
lfemur -7.36941 3.2306 -19.2942
ltibia 67.6634
lfoot 16.9763 14.5874
ltoes 10.8442
80
root 7.51218 15.4904 -24.6144 4.04803 2.39379 -2.04913
lowerback 4.6315 0.790628 3.92461
upperback -1.80956 1.42516 2.72504
thorax -4.45023 0.636702 0.50041
lowerneck -11.462 -1.21364 -4.0557
upperneck 10.7543 -1.33748 2.97069
head 5.16065 -0.617312 1.48369
rclavicle 3.08862e-014 2.3059e-014
rhumerus -67.4223 -38.6286 -37.753
rradius 14.1297
rwrist 43.4881
rhand -14.9671 -33.0753
rfingers 7.12502
rthumb 11.1964 -62.7565
lclavicle 3.08862e-014 2.3059e-014
lhumerus -25.154 -9.4992 91.8838
lradius 53.2374
lwrist 27.4348
lhand -30.1955 -17.2054
lfingers 7.12502
lthumb -3.50622 12.7455
rfemur -32.0302 3.89434 27.3374
rtibia 39.3024
rfoot -11.1237 6.2693
rtoes 7.03285
lfemur -9.75213 3.44257 -18.6666
ltibia 70.2617
lfoot 16.3385 10.5884
ltoes 2.29068
81
root 7.51746 15.5453 -24.3741 4.10285 2.23215 -2.10085
lowerback 4.63562 0.958684 3.98602
upperback -1.83883 1.65186 2.65277
thorax -4.47495 0.745613 0.372401
lowerneck -11.2499 -1.21669 -4.03263
upperneck 10.8627 -1.37242 3.10143
head 5.16079 -0.626348 1.51901
rclavicle 1.46604e-015 2.22639e-014
rhumerus -63.1627 -36.9506 -44.0859
rradius 14.9811
rwrist 38.6016
rhand -14.5351 -33.8557
rfingers 7.12502
rthumb 11.6131 -63.5139
lclavicle 1.46604e-015 2.22639e-014
lhumerus -25.9924 -9.64384 92.3007
lradius 51.5651
lwrist 27.0195
lhand -30.8271 -16.6862
lfingers 7.12502
lthumb -4.11616 13.2537
rfemur -30.8551 3.28468 27.61
rtibia 38.9077
rfoot -11.8379 7.06681
rtoes 6.11916
lfemur -12.1169 3.75219 -18.612
ltibia 72.3643
lfoot 15.1295 6.33512
ltoes -5.39986
82
root 7.51878 15.596 -24.1372 4.37593 1.85558 -1.95432
lowerback 4.47967 1.23639 3.72981
upperback -1.8813 1.99524 2.57032
thorax -4.42804 0.922504 0.404908
lowerneck -11.3625 -1.31458 -4.21249
upperneck 11.251 -1.50805 3.33733
head 5.30864 -0.683746 1.61243
rclavicle -3.10601e-015 5.56597e-015
rhumerus -59.2935 -35.252 -49.5745
rradius 15.7549
rwrist 34.5911
rhand -13.2199 -36.0737
rfingers 7.12502
rthumb 12.8812 -65.6562
lclavicle -3.10601e-015 5.56597e-015
lhumerus -26.8084 -10.1257 92.7927
lradius 49.8286
lwrist 26.8171
lhand -30.9205 -17.1075
lfingers 7.12502
lthumb -4.20638 12.8307
rfemur -29.9494 3.05014 27.5993
rtibia 38.4538
rfoot -12.1006 7.70655
rtoes 6.69085
lfemur -14.6338 4.28993 -18.8007
ltibia 74.1044
lfoot 13.0303 4.21614
ltoes -9.63726
83
root 7.52136 15.6386 -23.8963 4.60292 1.42378 -2.08849
lowerback 4.27007 1.49048 3.63824
upperback -1.91835 2.31991 2.6081
thorax -4.34665 1.08789 0.474477
lowerneck -11.4619 -1.38199 -4.26184
upperneck 11.6841 -1.60716 3.42646
head 5.46551 -0.727817 1.64156
rclavicle -7.10655e-015 -3.97569e-014
rhumerus -56.025 -34.4666 -53.306
rradius 16.0913
rwrist 32.6438
rhand -10.7103 -38.9615
rfingers 7.12502
rthumb 15.2996 -68.3756
lclavicle -7.10655e-015 -3.97569e-014
lhumerus -27.7281 -10.253 93.3045
lradius 47.9812
lwrist 26.3859
lhand -30.6516 -17.9628
lfingers 7.12502
lthumb -3.94668 11.9804
rfemur -28.9506 3.38431 27.7953
rtibia 37.9539
rfoot -12.4644 7.99418
rtoes 7.69538
lfemur -16.9606 4.86484 -18.6296
ltibia 75.5016
lfoot 11.1654 3.85649
ltoes -8.81096
